<svg width="23" height="22" viewBox="0 0 23 22" fill="none" xmlns="http://www.w3.org/2000/svg">
<rect x="0.5" width="22" height="22" rx="11" fill="#28B18F"/>
<path d="M6.47266 10.7695C6.47266 10.2832 6.87109 9.88477 7.36328 9.88477H10.6152V6.63281C10.6152 6.14648 11.0078 5.74219 11.5 5.74219C11.9922 5.74219 12.3906 6.14648 12.3906 6.63281V9.88477H15.6426C16.1289 9.88477 16.5273 10.2832 16.5273 10.7695C16.5273 11.2617 16.1289 11.6602 15.6426 11.6602H12.3906V14.9121C12.3906 15.3984 11.9922 15.8027 11.5 15.8027C11.0078 15.8027 10.6152 15.3984 10.6152 14.9121V11.6602H7.36328C6.87109 11.6602 6.47266 11.2617 6.47266 10.7695Z" fill="white"/>
</svg>
